<svg xmlns="http://www.w3.org/2000/svg" viewBox="0 0 194 102.64"><defs><style>.cls-1{fill:#fff;}.cls-2{fill:#f39200;}.cls-3{fill:#ffb600;}</style></defs><title>Asset 2</title><g id="Layer_2" data-name="Layer 2"><g id="Layer_1-2" data-name="Layer 1"><path class="cls-1" d="M111.22,86.89H112v5.42h0a3.13,3.13,0,0,1,3-1.71c2.06,0,3.49,1.72,3.49,4.16,0,2.89-1.85,4.33-3.62,4.33A3.1,3.1,0,0,1,112,97.43h0l-.07,1.47h-.72c0-.57.06-1.28.06-1.89Zm.82,8.88a2.54,2.54,0,0,0,.06.6,2.76,2.76,0,0,0,2.68,2c1.86,0,2.92-1.52,2.92-3.63,0-1.87-1-3.51-2.85-3.51a2.87,2.87,0,0,0-2.71,2.17,2.75,2.75,0,0,0-.1.71Z"/><path class="cls-1" d="M119.81,90.78l2.13,5.32c.22.57.44,1.23.59,1.74h0c.17-.49.38-1.14.63-1.8l2-5.26H126l-2.44,6.06c-1,2.52-1.67,4-2.74,5a4.55,4.55,0,0,1-1.42.84l-.25-.68a4.22,4.22,0,0,0,1.42-.89A6.28,6.28,0,0,0,122,99a1.08,1.08,0,0,0,.11-.35,1.19,1.19,0,0,0-.11-.36l-3-7.53Z"/><path class="cls-1" d="M130.49,93.12c0-1,0-1.74-.07-2.46h1.77l.1,1.22h.06a2.79,2.79,0,0,1,2.53-1.4A2.38,2.38,0,0,1,137.17,92h0a3.29,3.29,0,0,1,1-1,2.86,2.86,0,0,1,1.69-.49c1.35,0,2.74.93,2.74,3.57V98.9h-2V94.35c0-1.37-.47-2.18-1.47-2.18a1.6,1.6,0,0,0-1.46,1.1,2.5,2.5,0,0,0-.1.69V98.9h-2V94.13c0-1.15-.45-2-1.42-2a1.66,1.66,0,0,0-1.5,1.17,2.26,2.26,0,0,0-.11.69V98.9h-2Z"/><path class="cls-1" d="M150.94,96.92a11.23,11.23,0,0,0,.13,2H149.2L149,98h0a3,3,0,0,1-2.43,1.1A2.44,2.44,0,0,1,144,96.64c0-2.07,1.84-3.13,4.89-3.12v-.13c0-.54-.22-1.44-1.68-1.44a4.28,4.28,0,0,0-2.21.61l-.41-1.35a5.84,5.84,0,0,1,3-.73c2.64,0,3.4,1.67,3.4,3.48Zm-2-2c-1.47,0-2.88.28-2.88,1.54a1.09,1.09,0,0,0,1.19,1.18,1.72,1.72,0,0,0,1.64-1.13,1.48,1.48,0,0,0,0-.46Z"/><path class="cls-1" d="M152.81,93.12c0-1,0-1.74-.07-2.46h1.81l.1,1.24h0a3,3,0,0,1,2.64-1.42c1.44,0,2.93.93,2.93,3.53V98.9h-2.08V94.25c0-1.18-.44-2.08-1.57-2.08A1.75,1.75,0,0,0,155,93.39a1.87,1.87,0,0,0-.1.66V98.9h-2.08Z"/><path class="cls-1" d="M169.81,86.89v9.7c0,.84,0,1.75.07,2.31H168l-.11-1.3h0a3,3,0,0,1-2.67,1.49c-2,0-3.54-1.68-3.54-4.21,0-2.76,1.71-4.4,3.69-4.4a2.62,2.62,0,0,1,2.32,1.06h0V86.89Zm-2.08,7.21a3.53,3.53,0,0,0,0-.56,1.81,1.81,0,0,0-1.79-1.45c-1.34,0-2.08,1.18-2.08,2.7s.74,2.62,2.06,2.62a1.82,1.82,0,0,0,1.79-1.47,2.32,2.32,0,0,0,.07-.61Z"/><path class="cls-1" d="M174,88.36a1.17,1.17,0,1,1-1.17-1.13A1.12,1.12,0,0,1,174,88.36ZM171.75,98.9V90.66h2.08V98.9Z"/><path class="cls-1" d="M175.77,93.32c0-1.12,0-1.93-.07-2.66h1.79l.09,1.56h0a2.46,2.46,0,0,1,2.26-1.74,2.38,2.38,0,0,1,.49,0v1.94a3.61,3.61,0,0,0-.62,0A1.83,1.83,0,0,0,177.9,94a3,3,0,0,0-.05.62V98.9h-2.08Z"/><path class="cls-1" d="M183.7,88.36a1.17,1.17,0,1,1-1.17-1.13A1.12,1.12,0,0,1,183.7,88.36ZM181.48,98.9V90.66h2.08V98.9Z"/><path class="cls-1" d="M41.35,27.82a11.2,11.2,0,0,0-4-4.77,4.74,4.74,0,0,0-2.57-.82,7.9,7.9,0,0,0-4.26,1.1,22,22,0,0,0-3.44,2.61l-3.26,3a10.81,10.81,0,0,1-3.62,2.2,69,69,0,0,0,3.76-13.25c.79-4.49.33-6,.63-10.63-.06.31-.12.71-.18,1.19s-.11,1-.14,1.52a10.59,10.59,0,0,1-.18,1.46,9.6,9.6,0,0,1-.23,1l-.09-.09a3.09,3.09,0,0,0,.18-1c.06-.61.14-1.29.23-2s.17-1.44.23-2.11.09-1.13.09-1.37A6,6,0,0,0,24,3.35a7.5,7.5,0,0,0-1.37-2.07L21.26.82l-.64,1.1-.55.37L20.25.73l.28-.46L20.25,0c-.73.06-1.6.92-2.61,2.57a50.82,50.82,0,0,0-3.25,6.6,60.63,60.63,0,0,0-2.52,6.46q-1.78,5.31-3.48,11T5.13,38.14Q3.57,43.87,2.48,48.77C1.74,52,1.15,54.9.69,57.34A32.71,32.71,0,0,0,0,62.66a4.46,4.46,0,0,0,.09,1H.55c.06-.12.15-.34.28-.64s.24-.64.36-1a8.75,8.75,0,0,0,.28-1c.06-.3.06-.49,0-.55A12.17,12.17,0,0,1,2,58.67c.21-.58.41-1.17.6-1.79a1,1,0,0,1-.19-.73,5,5,0,0,1,.28-1.56l.09-.09c-.06,0-.09.09-.09.28v1.55Q4,51.49,5.41,46.71c.92-3.18,2-6.36,3.12-9.54q-1,3.67-2.11,7.29T4.31,51.84q-.73,2.85-1.24,5.73a39.44,39.44,0,0,1-1.42,5.64l.09,1.38H2c.3,0,.49-.19.55-.55s.12-.68.18-.92L3.12,63l.36.46v.64a22.11,22.11,0,0,1,1.75-1.74L5,63.76c.18-.18.5-.49,1-.92s.92-.87,1.38-1.32.87-.91,1.24-1.33a3.81,3.81,0,0,0,.64-.92,1.87,1.87,0,0,1-.83-.18,8.69,8.69,0,0,1,1.15-.65,1.18,1.18,0,0,0,.69-1,1.12,1.12,0,0,0,.64-.69,6,6,0,0,1,.37-.73.63.63,0,0,1,.15-.49.58.58,0,0,1,.21-.2c.08-.44.15-.89.24-1.33a.58.58,0,0,1,.45-.48.78.78,0,0,1,1.18.55l0,.52a.45.45,0,0,1,.06.12c.81,2.94,1.1,5.91,2.29,8.75.36.85.75,1.68,1.14,2.52a37.66,37.66,0,0,0,7.58,9,17.29,17.29,0,0,0,7.11,1.59c.09,0,.16,0,.24,0a17.28,17.28,0,0,1-4-7.29l-.24-.2.09-.46c-.31-.86-.58-1.7-.83-2.52s-.49-1.67-.73-2.52a3.43,3.43,0,0,1-.64-.55c-.31-.31-.31-.52,0-.64a12.64,12.64,0,0,1-.46-1.7c-.18-.83-.4-1.7-.64-2.61l-.69-2.52a4.16,4.16,0,0,0-.5-1.33c-.07-.31-.11-.57-.14-.78a2.37,2.37,0,0,1,0-.78,3.29,3.29,0,0,1-.32-1q-.13-.69-.27-1.47c-.09-.52-.17-1-.23-1.51a10,10,0,0,1-.09-1.11c0-.3.3-.45.91-.45h1.29A9,9,0,0,0,26,47a10.49,10.49,0,0,0,2-.55q1-.36,1.83-.78a3.69,3.69,0,0,0,1.33-1,20,20,0,0,0,2.16-1.19,36,36,0,0,0,3-2.06A30.86,30.86,0,0,0,39,39.19a2.94,2.94,0,0,0,1.15-1.83h-.09a19.38,19.38,0,0,0-1.56,1.51c-.68.7-1.39,1.41-2.16,2.11s-1.5,1.33-2.2,1.88a3.12,3.12,0,0,1-1.6.82l.09-.27a23.89,23.89,0,0,0,5.68-5,16.47,16.47,0,0,0,3.4-6.83.87.87,0,0,0,.23-.5,4.41,4.41,0,0,0,0-.6A6.71,6.71,0,0,0,41.35,27.82ZM5.59,44.69A2.72,2.72,0,0,1,5,46.16a14.19,14.19,0,0,1,.46-1.61c.18-.52.37-1,.55-1.51C5.84,43.47,5.71,44,5.59,44.69Zm4.82-1a33,33,0,0,1-2.25,5.54Q9,46.35,10,43.54t2.11-5.63Q11.28,40.84,10.41,43.73ZM20.86,33.14A39.24,39.24,0,0,1,24,29.75a31.05,31.05,0,0,1,3.39-2.89,5.22,5.22,0,0,1,2.89-1.24,2.82,2.82,0,0,1-.78.6,5.16,5.16,0,0,0-.87.59,31.16,31.16,0,0,0-5,4.36q-2.25,2.43-4.72,4.72A19.14,19.14,0,0,1,20.86,33.14Zm.87,2.11a4,4,0,0,1-.73.91l.18-.45Zm-3-2.57A7.74,7.74,0,0,1,19,31.3,4.28,4.28,0,0,1,19.53,30,14.48,14.48,0,0,1,18.7,33Zm.51,6.1c-.22.27-.35.41-.41.41l2-2.84c-.06.12-.18.33-.36.64s-.39.61-.6.92Zm2.11-.05c.7-.92,1.46-1.86,2.29-2.84S25.21,34,26,33.23,27.11,32,27.23,32v.09a24.48,24.48,0,0,0-3.53,4.22,21.78,21.78,0,0,1-3.53,4.12A7.74,7.74,0,0,1,21.32,38.73ZM25.76,40a7.83,7.83,0,0,1-4.12,1.24L21.45,41l.46-1.19L20.54,41.3a9.61,9.61,0,0,1,1.6-2.48q1.34-1.65,2.89-3.34t3.12-3.12a10.75,10.75,0,0,1,2.38-1.79c-1.34,1.41-2.7,2.75-4.08,4a31.84,31.84,0,0,0-3.36,3.68c.43-.51,1-1.15,1.8-1.94q1.61-1.65,3.44-3.21T32,30.34a5.69,5.69,0,0,1,2.89-1.24l.28.19q-.93,1.65-2.34,3.71a29.69,29.69,0,0,1-3.21,3.9A19.82,19.82,0,0,1,25.76,40Zm6.47-3.3a1,1,0,0,1,.68-.41v.09a11.28,11.28,0,0,1-2.42,2.75A9.19,9.19,0,0,1,27.32,41l-.09-.09a42.19,42.19,0,0,0,3.62-3.3q1.7-1.74,3.44-3.58A10,10,0,0,1,33,35.61a17.09,17.09,0,0,0-1.38,1.56A1.63,1.63,0,0,0,32.23,36.67Zm1.69,1.7a6,6,0,0,0,1-1.2l.46-.09a6.72,6.72,0,0,1-1,1.29c-.4.36-.81.73-1.24,1.09C33.1,39.28,33.37,38.91,33.92,38.37Zm-.09,2.93a14.13,14.13,0,0,0,2-1.79,9.4,9.4,0,0,1,2.07-1.7A13.88,13.88,0,0,1,33.83,41.3Z"/><polygon class="cls-1" points="11.7 45.45 11.51 45.54 11.24 46.46 11.42 46.37 11.7 45.45"/><path class="cls-1" d="M12.34,48.38c-.06,0-.22.25-.46.74Z"/><path class="cls-1" d="M15,38.94a1.3,1.3,0,0,0-.09.55Z"/><path class="cls-1" d="M15.27,37.84a1.3,1.3,0,0,0-.09.55Z"/><polygon class="cls-1" points="15.55 36.65 15.64 37.11 15.64 36.74 15.55 36.65"/><path class="cls-1" d="M15.82,35.55a.75.75,0,0,0,.09.46Z"/><path class="cls-1" d="M21,27.82a1.16,1.16,0,0,0-.09.55Z"/><path class="cls-1" d="M46.51,75.43a9.54,9.54,0,0,1-4.86-1.28,13.68,13.68,0,0,1-3.8-3.26,14.43,14.43,0,0,1-2.48-4.44,14.84,14.84,0,0,1-.87-5A30.62,30.62,0,0,1,36.24,52a41.48,41.48,0,0,1,4.81-9.91,32.2,32.2,0,0,1,7.2-7.79,14.46,14.46,0,0,1,9-3.16,15.72,15.72,0,0,1,8.62,2.52,14.78,14.78,0,0,1,5.77,6.92l-.18.64a1.46,1.46,0,0,1,.27,1A15.88,15.88,0,0,1,71.27,46a15.52,15.52,0,0,0-.46,3.72v.18l.27-.09.19-.46a.39.39,0,0,0,0,.18.49.49,0,0,1,0,.19A11.44,11.44,0,0,1,71,52.51c-.28,1-.57,2-.88,2.84A35.34,35.34,0,0,1,66.5,62.5,33.56,33.56,0,0,1,61.09,69a27.89,27.89,0,0,1-6.83,4.67A17.56,17.56,0,0,1,46.51,75.43Zm2.93-38.51a7.53,7.53,0,0,1-1.65,2c-.67.59-1.4,1.24-2.2,2a18.1,18.1,0,0,0-2.29,2.61,13.25,13.25,0,0,0-1.83,4,2.78,2.78,0,0,0,.59-.6,4.69,4.69,0,0,0,.42-.69,38.73,38.73,0,0,1,3.8-4.9l4.17-4.54Zm-6.87,7c-.13.25-.31.58-.55,1s-.43.77-.55,1Zm.64-1.1.09.28.19-.28-.1-.18ZM45,49.3c.74-1,1.42-2.11,2.06-3.21s1.3-2.17,2-3.21a3.24,3.24,0,0,0-.91,1,19.24,19.24,0,0,0-1.28,2c-.43.73-.83,1.43-1.2,2.11A8,8,0,0,0,45,49.3Zm2.29,4.86V54a.64.64,0,0,1-.23.14c-.09,0-.13.1-.13.22h.18ZM54.67,41a34.29,34.29,0,0,0-4,5.45,42.57,42.57,0,0,0-2.94,6.1l-.09.09h.09l2.11-4.22a20.17,20.17,0,0,1,2.48-3.66A16.56,16.56,0,0,0,54.67,41ZM58.8,39.4a8.29,8.29,0,0,0-3.26,2.75A43.93,43.93,0,0,0,52,47.24a42.5,42.5,0,0,0-2.89,5.59A12.08,12.08,0,0,0,47.88,57c0,.13,0,.19.1.19a19.62,19.62,0,0,0,1.28-3.58,13.74,13.74,0,0,1,1.38-3.48,25.67,25.67,0,0,1,3.89-5.46A50.46,50.46,0,0,0,58.8,39.4Zm4.4,3.3V40.18a8.32,8.32,0,0,0-.37-2.43.2.2,0,0,1-.14,0,.18.18,0,0,0-.13,0,2.43,2.43,0,0,0-1.29.64q-.83.64-1.74,1.47t-1.74,1.65a13.6,13.6,0,0,0-1.1,1.19,27.09,27.09,0,0,0-3,4.22A48.81,48.81,0,0,0,51,52.23a47.09,47.09,0,0,0-2.07,5.69,18.39,18.39,0,0,0-.82,5v1.33a13.33,13.33,0,0,0,.14,2,8.44,8.44,0,0,0,.41,1.79c.18.52.43.78.73.78a1.69,1.69,0,0,0,.74-.23,2.84,2.84,0,0,0,.64-.41,16.42,16.42,0,0,0,5.09-4.91,30.12,30.12,0,0,0,2.93-5.91c.76-2.08,1.44-4.2,2-6.37a36.16,36.16,0,0,1,2.43-6.47ZM57.33,64.25a8.67,8.67,0,0,0,1.33-1.56,23,23,0,0,0,1.47-2.39,26.65,26.65,0,0,0,1.19-2.56,9.3,9.3,0,0,0,.59-2l-.18-.46-1,1.74.92-1.46a14.75,14.75,0,0,1-2.16,4.35A15.16,15.16,0,0,0,57.33,64.25ZM64,56.45a7.52,7.52,0,0,1-.68,2,19.63,19.63,0,0,0-.88,2v.09c.06,0,.22-.23.46-.69s.49-1,.74-1.56.49-1.14.73-1.69.43-1,.55-1.2Zm6.6-5.86c-.18,0-.3.1-.36.32a3,3,0,0,1-.19.5,40.38,40.38,0,0,1-3,7,73.84,73.84,0,0,0-3.3,6.83,17.73,17.73,0,0,0,1.83-2.88c.55-1.07,1.07-2.16,1.56-3.26s1-2.14,1.37-3.12a13.42,13.42,0,0,1,1.38-2.47,8.59,8.59,0,0,1,.32-1.47C70.36,51.56,70.5,51.08,70.62,50.59Zm-3.3,4.67c-.55,1.29-1.16,2.54-1.83,3.76a27.91,27.91,0,0,0-1.74,3.85c.18-.06.52-.52,1-1.37s1-1.79,1.46-2.8.93-2,1.33-2.89a6.54,6.54,0,0,0,.6-1.74V54a1.5,1.5,0,0,1-.64.91l-.1-.18-.27.09ZM65,54.53l.28.18.18-.27v-.37l-.37.18Z"/><path class="cls-1" d="M102.05,68.74a5,5,0,0,0-1.37,1c-.13.24-.25.49-.37.73a1.17,1.17,0,0,1-.55.55c-.79.12-1.33.22-1.6.28a2.76,2.76,0,0,0-.6.18l-.5.27a10.14,10.14,0,0,1-1.24.55l-.19.74a7.22,7.22,0,0,0-1.6.55,4,4,0,0,1-1.7.36,7.08,7.08,0,0,1-2-.27,7.69,7.69,0,0,0-1.2.55,2.3,2.3,0,0,1-1.19.27,7.58,7.58,0,0,1-3-.59,7.59,7.59,0,0,0-3-.6c-.3,0-.49.09-.55.28l-.18.55a29.51,29.51,0,0,0-.73,3.34c-.31,1.68-.66,3.43-1.06,5.23s-.82,3.44-1.28,4.91-.91,2.26-1.33,2.38l-.55.27a.71.71,0,0,0,.46.28H77l-.55,2.84h-.09l-.09-.46-.28.19c-.12.61-.23,1.22-.32,1.83a13.36,13.36,0,0,1-.41,1.83.46.46,0,0,1-.23-.36,3.73,3.73,0,0,1,0-.6,3,3,0,0,0,0-.55.43.43,0,0,0-.32-.32,3.54,3.54,0,0,1-.51,1.24l-.68,1.14c-.37-.06-.51-.24-.42-.55a.47.47,0,0,0-.23-.64l-.09.19a6,6,0,0,1-.82,2.56l-.64-.18A1.33,1.33,0,0,1,71,98c-.06-.37-.11-.75-.14-1.15s0-.79,0-1.19v-.87a85.27,85.27,0,0,1,1-13.21,131.28,131.28,0,0,1,2.65-12.88Q76.1,62.32,78.12,56t4-12.61A2.11,2.11,0,0,0,83,42.06a8.71,8.71,0,0,0,.19-1.65v-.09a1.39,1.39,0,0,0-.56.78,2.27,2.27,0,0,1-.45.87,4.73,4.73,0,0,1,.09-.69,2.91,2.91,0,0,1,.18-.69v-.18c-.18.37-.53,1.13-1.05,2.29s-1,2.4-1.56,3.71-1,2.56-1.38,3.72-.62,1.89-.68,2.2a1.42,1.42,0,0,0,.5-.74,5.19,5.19,0,0,1,.32-.82c.43-1.1.84-2.2,1.24-3.3a25.47,25.47,0,0,1,1.42-3.21l.09.09c-.06.25-.29.92-.69,2s-.85,2.28-1.37,3.53-1,2.37-1.47,3.34-.78,1.47-1,1.47a3.75,3.75,0,0,1-.09,1.79c-.19,1-.43,1.94-.74,3s-.62,2-1,2.84-.6,1.32-.78,1.38l-.09.09.46.46-.37.64a16.7,16.7,0,0,1-.64,3c-.31,1-.61,2-.92,2.94l.09.64c-.18.79-.36,1.88-.55,3.25a7,7,0,0,1-.91,3,17.79,17.79,0,0,1-.18,1.84c-.13.91-.28,1.92-.46,3s-.36,2.22-.51,3.35a21.81,21.81,0,0,0-.23,2.7v.92a4.78,4.78,0,0,0,.09.92l-.27.27a3,3,0,0,1,0,.64,4.19,4.19,0,0,0,0,.65c0,1,0,2.07.13,3.11s.2,2.08.33,3.12l-.19.55a3.28,3.28,0,0,1-1.1-1.7,16.16,16.16,0,0,1-.55-2.42,25,25,0,0,1-.23-2.57c0-.86,0-1.53,0-2a40.29,40.29,0,0,1,.36-5.41c.25-1.77.55-3.54.92-5.32s.73-3.54,1.1-5.31a53.87,53.87,0,0,0,.83-5.41,45.79,45.79,0,0,1,1-4.91q.87-3.43,2.2-7.7t3-8.85q1.65-4.57,3.44-8.39a45.69,45.69,0,0,1,3.48-6.28c1.13-1.65,2.16-2.5,3.07-2.56a1.61,1.61,0,0,1-.18.78c-.12.21-.24.44-.37.68l.46-.46q-.45,1-1,2.07c-.34.7-.66,1.39-1,2.06a4.29,4.29,0,0,0,.82-.92c.37-.48.74-1,1.1-1.51l1-1.42c.3-.43.52-.64.64-.64a.35.35,0,0,1,.37.23,1.11,1.11,0,0,0,.28.41,4.25,4.25,0,0,1,1.92,1.33,3.85,3.85,0,0,1,.55,2.25A10.31,10.31,0,0,1,92,36.47a10.78,10.78,0,0,0-.13,1.74v.46l.36-.92.19-.18A14.72,14.72,0,0,1,92.24,40c-.12.73-.24,1.5-.36,2.29l2.56-2.57a27.29,27.29,0,0,1,3-2.56,20.45,20.45,0,0,1,3.3-2,8,8,0,0,1,3.53-.82,8.69,8.69,0,0,1,3.58.82,14.9,14.9,0,0,1,3.39,2.11,11.17,11.17,0,0,1,2.57,3,6.91,6.91,0,0,1,1,3.48,2,2,0,0,0,.27,1.19,9.3,9.3,0,0,1-.5,2.89c-.34,1-.63,1.94-.88,2.8l.83-.92c0-.31.12-.49.37-.55a.39.39,0,0,0,0,.18.41.41,0,0,1,0,.18,9,9,0,0,1-1,2.85c-.65,1.4-1.39,2.87-2.25,4.4s-1.69,3-2.52,4.26a12.3,12.3,0,0,1-1.88,2.52c-.18.31-.41.66-.69,1.06s-.58.79-.91,1.19a12.31,12.31,0,0,1-1.06,1.1,2.2,2.2,0,0,1-1,.6l-.82.64c0,.36-.13.58-.37.64l-.27-.28ZM72.62,95.42a1.6,1.6,0,0,0,.09-.64c0-.19,0-.28-.09-.28l-.18.64Zm1-6.69v-.1a.16.16,0,0,0-.18-.18l-.19.18.09.1Zm.82-8.07a.63.63,0,0,1,.1-.28c.06-.12,0-.18-.1-.18Zm.46,12.93c.12,0,.22-.1.28-.28a3.7,3.7,0,0,1,.18-.46l-.09-.27-.55-.09-.09.91Zm1.56.91-.27.28-.28-.28.28-.18ZM76,74.33l.09.28.19.09c.24,0,.37-.15.37-.46l-.28-.18Zm1.65-21.45-.27.18a3.94,3.94,0,0,0-.14.51,2.6,2.6,0,0,0,0,.5Zm-.27,34.75-.09-.1V88Zm.09-3.58a1.3,1.3,0,0,0-.09.55Zm.64-5.13.09-.37L78,78l-.18.18ZM79,84.51a.78.78,0,0,1-.28-.09.76.76,0,0,0-.27-.1h-.46a.71.71,0,0,0,.73.46Zm-.46-8.07-.46.73.09.19.46-.64ZM79,75l-.28.19.37.27.18-.27Zm-.09,7.52a18.54,18.54,0,0,0,1.37-4.63,43.29,43.29,0,0,1,1-4.72l-.09-.27c-.49,1.28-1,2.77-1.52,4.49A16.52,16.52,0,0,0,78.86,82Zm.27-20.17.18.18L79.5,62l-.19-.09Zm.28,10.73a.8.8,0,0,0,.27-.55,1.74,1.74,0,0,0-.18-.92l-.37.46.28.09.09.46a2.21,2.21,0,0,0-.28,1l.09.64Zm.18-11.74c.3-.79.75-2,1.33-3.48s1.16-3.12,1.74-4.77,1.11-3.22,1.61-4.72A26.27,26.27,0,0,0,85.18,45,10.13,10.13,0,0,0,84,47.56q-.92,2.38-1.88,5.23t-1.7,5.4C79.93,59.91,79.65,61,79.59,61.31ZM81.33,43.8a2.34,2.34,0,0,1,.28-.6,3.26,3.26,0,0,1,.45-.68c-.06.12-.16.4-.32.82s-.29.64-.41.64Zm1.19,18.7q.18,0,.42-.45a10.61,10.61,0,0,0,.41-1c.12-.37.23-.72.32-1.06a3.31,3.31,0,0,0,.14-.68v-.19Zm2.3,5.5a7.66,7.66,0,0,0,4.35-1.46A27.52,27.52,0,0,0,93.34,63,37.66,37.66,0,0,0,97,58.65c1.1-1.52,2-2.84,2.75-3.94A28.73,28.73,0,0,0,103,48a48.9,48.9,0,0,0,1.78-7.34,6.53,6.53,0,0,0-4.17,1.84,29.18,29.18,0,0,0-4.12,4.35q-2,2.52-3.72,5.09c-1.16,1.71-2.14,3.06-2.93,4A8.94,8.94,0,0,1,91,53.57a21.57,21.57,0,0,1,1.65-2.25q.92-1.09,1.74-2.16a10.61,10.61,0,0,0,1.38-2.33,11.63,11.63,0,0,0-2.07,2.43q-1.32,1.88-2.7,4.12t-2.62,4.36c-.82,1.4-1.42,2.44-1.78,3.11.42-.91.87-1.81,1.33-2.7A19.25,19.25,0,0,0,89,55.44a5.09,5.09,0,0,0-1.14,1.79,6.34,6.34,0,0,1-1.15,1.88,8.43,8.43,0,0,1-.32,1.24,3.57,3.57,0,0,1-.6,1.15l.1.18.64-.46c-.49,1.1-1,2.19-1.38,3.26s-.85,2.15-1.28,3.25A1.28,1.28,0,0,0,84.82,68Zm.45-7.88q-.27,0-.45.6l-.28.87Zm-.09,13.39h-.36l-.1.09Zm.28-29.62-.19.19.1.36.18-.18Zm.64,13.94-.41.82a3.33,3.33,0,0,0-.32.74v.18a1.59,1.59,0,0,0,.45-.83A5.56,5.56,0,0,1,86.1,57.83Zm2.57-13.3c-.13.25-.33.69-.6,1.33s-.55,1.32-.83,2-.52,1.36-.73,2A5.12,5.12,0,0,0,86.19,51v.19A12.2,12.2,0,0,0,87.66,48C88.08,46.6,88.42,45.45,88.67,44.53Zm0,4.77c-.25.43-.52,1-.83,1.56a5.06,5.06,0,0,0-.55,1.65c.24-.49.47-1,.69-1.51a9.5,9.5,0,0,1,.78-1.52Zm1.1,4.86a.53.53,0,0,0-.37.37l.18.09.19-.28Zm1.28-12.47A3.65,3.65,0,0,0,90.36,43,8.29,8.29,0,0,0,90,44.44l.6-.91a2.21,2.21,0,0,0,.41-1.11Zm-.92,12.1c.37-.48.75-1,1.15-1.65a6.92,6.92,0,0,0,.87-1.83A11.4,11.4,0,0,0,90.91,52,3.9,3.9,0,0,0,90.13,53.79Zm5.23-12.92a3.42,3.42,0,0,0-1.29,1c-.48.52-1,1.12-1.51,1.79a23.58,23.58,0,0,0-1.37,2,4.56,4.56,0,0,0-.69,1.51A36,36,0,0,0,95.36,40.87ZM91.6,73.14V73l-.27.27.09.18Zm.83-36.31a1.12,1.12,0,0,1-.1-.55Zm.64,12.1-.28.19-.27.55h.09Zm2.1,23.38L95,72.5l.09.18.19-.18Zm5-12.46a37,37,0,0,1,2.29-3.4,8.07,8.07,0,0,0,1.65-3.66,2.12,2.12,0,0,0-.55.59c-.18.28-.34.51-.46.69a18,18,0,0,1-1.51,2.25c-.65.82-1.3,1.68-2,2.56L97.7,61.36a11.58,11.58,0,0,0-1.24,1.88,5.81,5.81,0,0,0,2-1.84A4.37,4.37,0,0,1,100.13,59.85ZM98,71.76a2.37,2.37,0,0,0-.37.55.58.58,0,0,1-.55.37l-.18-.09v-.46Zm1.74-1.92-.09-.28-.28.28.19.18Zm.37-.46a3.9,3.9,0,0,0,.55-.64l-.1-.09a.41.41,0,0,0-.32.18,3.73,3.73,0,0,0-.23.37Zm2.38-2.47-.37-.19-.09.19.28.27Zm.92-14.58a2.16,2.16,0,0,0-.51.73c-.09.25-.2.52-.32.83a2.19,2.19,0,0,0,.51-.74C103.2,52.91,103.3,52.63,103.43,52.33Zm-.55,14.58-.19.27.1.18.18-.18Zm2.93-11.56a2.53,2.53,0,0,0-.23.87,1.61,1.61,0,0,1-.5,1c.49-.61,1-1.26,1.46-1.93a7.15,7.15,0,0,0,1.1-2.29,3.74,3.74,0,0,0-.91,1.37C106.42,55,106.12,55.35,105.81,55.35ZM111,52.88a27.9,27.9,0,0,0-2.71,4.49,21.32,21.32,0,0,1-2.89,4.49A4.32,4.32,0,0,0,107,60.4a30.42,30.42,0,0,0,1.69-2.62c.55-.94,1-1.88,1.47-2.79S110.85,53.37,111,52.88Zm2.47-1.29-1.69,2.71q-1.25,2-2.57,4.17c-.89,1.47-1.7,2.84-2.43,4.13a19.21,19.21,0,0,0-1.28,2.47c.55-.67,1.23-1.6,2.06-2.8s1.65-2.45,2.48-3.8,1.55-2.63,2.19-3.85A12.78,12.78,0,0,0,113.51,51.59Z"/><path class="cls-1" d="M115.21,65.9a3.32,3.32,0,0,1-.09-.92,5.58,5.58,0,0,1,.18-1.42l.37-1.42.45-.55a6.31,6.31,0,0,1,.46-2.62q.65-2.23,1.75-5.45t2.47-6.88q1.38-3.66,2.71-6.92c.88-2.17,1.68-4.06,2.38-5.68a30.81,30.81,0,0,1,1.51-3.17,3.22,3.22,0,0,0,.55-.23,1.23,1.23,0,0,1,.55-.13,1.78,1.78,0,0,1,.83.36c.37.25.76.54,1.19.87s.83.68,1.19,1a6.92,6.92,0,0,0,.83.69,35.71,35.71,0,0,1,1.69,3.26,9.45,9.45,0,0,1,.87,3.53.78.78,0,0,1,.28.09.69.69,0,0,0,.27.09,1,1,0,0,0,.74-.28,1,1,0,0,1,.73-.27l.19.18a3.4,3.4,0,0,1-.65,1.19l1-.91a6.72,6.72,0,0,0-.82,1c-.25.34-.5.66-.74,1a1.52,1.52,0,0,0,.19-.64,1.5,1.5,0,0,0-.46.46,5.7,5.7,0,0,0-.55.87,9.83,9.83,0,0,0-.46.92,1.8,1.8,0,0,0-.19.59.63.63,0,0,0,.05.28.62.62,0,0,1,.05.27,5.61,5.61,0,0,1,1.1-1.51c.55-.58,1-1.06,1.37-1.42v-.55a10.13,10.13,0,0,0,1.52-1.19c.76-.67,1.55-1.41,2.38-2.2s1.6-1.55,2.34-2.25a12.9,12.9,0,0,0,1.28-1.33l-.64-.18c-.67.42-1.32.85-1.93,1.28A19.52,19.52,0,0,0,140.42,37l-.46.09a.34.34,0,0,1,.09.41,2.79,2.79,0,0,1-.27.5,1.55,1.55,0,0,1-.46.46l-.37.28a1.31,1.31,0,0,0,.46-.92,15.28,15.28,0,0,1-1.6,1.42,3.3,3.3,0,0,1-2.06.6c.55-.74,1.26-1.61,2.15-2.61a35.18,35.18,0,0,1,2.84-2.89,17.34,17.34,0,0,1,3.17-2.3,6.59,6.59,0,0,1,3.2-.91,6.28,6.28,0,0,1,3.67.91,20.68,20.68,0,0,1,2.84,2.57c.19.25.43.55.74.92a1.23,1.23,0,0,1,.36,1l.28,1.1c.3,0,.47.24.5.73a4.57,4.57,0,0,0,.14,1,1,1,0,0,0-.5.87,10.42,10.42,0,0,0,0,1,5.29,5.29,0,0,1,0,.69,1.38,1.38,0,0,1-.51.6.83.83,0,0,1-.23.78,2.53,2.53,0,0,1-.69.5l-.09,1h-.36l-.19-.46-.64.19.46.73a2,2,0,0,1-1.28.37l-.55.87a4,4,0,0,0-.46.87l-1.1.55a6.68,6.68,0,0,0,.82-.05.94.94,0,0,0,.64-.41l.92-.55-2.38,2.38L149,49l.37-.55-1.1-.19-.55-.46v-.45l-.46.36c-.25-.06-.71-.13-1.38-.23s-1-.29-1-.59a2.08,2.08,0,0,1,.14-.46,1.81,1.81,0,0,0,.14-.55l-.09-.18a5.27,5.27,0,0,0-1.06-.37,4.35,4.35,0,0,0-1-.18c-.31,0-.75.32-1.33,1a26.39,26.39,0,0,0-2,2.52c-.73,1-1.5,2.15-2.29,3.35s-1.56,2.37-2.3,3.53-1.39,2.18-2,3.07L132,60.49c.42-.8,1-1.9,1.83-3.3s1.65-2.83,2.57-4.27,1.82-2.79,2.7-4.08A21.83,21.83,0,0,1,141.34,46l1.15-1.15a3.6,3.6,0,0,0,.87-1.23,33.85,33.85,0,0,0-5.64,6.23c-1.74,2.45-3.4,5-4.95,7.7s-3.09,5.4-4.59,8.12a71.74,71.74,0,0,1-4.63,7.38l-1.65,2.11a.92.92,0,0,0-.69.23,3.31,3.31,0,0,1-.5.41l-.37.73V74.79l-.09.09-.82.46a.45.45,0,0,0-.23.18,1.85,1.85,0,0,0-.09.23,5,5,0,0,1-.42.69c0,.31-.12.46-.36.46l-.19-.09.37-2a9.14,9.14,0,0,1,.5-1.33,10.25,10.25,0,0,0,.51-1.24c.24-.67.58-1.52,1-2.56s.85-2.11,1.28-3.21.82-2.16,1.19-3.17a16.57,16.57,0,0,0,.74-2.52l-.1-.09a26.07,26.07,0,0,0-1,2.52c-.4,1.07-.81,2.17-1.24,3.3s-.82,2.17-1.19,3.12a8,8,0,0,1-.92,1.88,2.53,2.53,0,0,1,.09-.55,2.14,2.14,0,0,0,.1-.55,8.67,8.67,0,0,0-1,2.75,15.43,15.43,0,0,1-.83,2.84l-.09.09V76a4.06,4.06,0,0,1,.37-1.37,2.58,2.58,0,0,0-.78,1.51,2.64,2.64,0,0,1-.78,1.51,5.79,5.79,0,0,1-.32-.73,2.14,2.14,0,0,1-.14-.73,5.33,5.33,0,0,1,.23-1.66,2.16,2.16,0,0,1,1-1.19,6.43,6.43,0,0,1,.23-2.66c.28-1,.51-1.83.69-2.56a2.5,2.5,0,0,0,.64-1.1l-.09-.28a2.6,2.6,0,0,1-.46-.32c-.18-.15-.24-.29-.18-.41s.14-.58.23-1a2.66,2.66,0,0,1,.32-.92l.09.28.64.36a5.78,5.78,0,0,0-.27-1.14,5.24,5.24,0,0,1-.28-1.15l-.73.46-.46.64.09.64.46.28-.64.55a17.25,17.25,0,0,1-1,5.78,48.17,48.17,0,0,0-1.65,5.59,4.25,4.25,0,0,1-.51-.6,1.31,1.31,0,0,1-.23-.78,11.1,11.1,0,0,1,.19-1.42c.12-.7.26-1.45.41-2.24s.31-1.53.46-2.2a4.64,4.64,0,0,1,.41-1.29l.28-.18a2.41,2.41,0,0,0-.14-.83,7.71,7.71,0,0,0-.32-.73h.09l.18-.27-.09-.19Zm1.37,10.17-.27-.18-.37.18.28.19Zm1.29-8.71-.37-.27.18-.18h.19l.27.36Zm1.65-5.68-.09-.09c-.31.18-.46.09-.46-.28l-.46-.27a.9.9,0,0,1,.23.55,5.21,5.21,0,0,1,0,.64l.55.09Zm-.83-1.74.09.27.65.09.27-.18-.46-.27-.18-.37h-.18Zm0,12.74.19-.64.18-.09-.18.55Zm1.47-16a3.72,3.72,0,0,0-.51.87,3.25,3.25,0,0,0-.32.87v.09l.46-.55a4.28,4.28,0,0,1,.23-.55,1.44,1.44,0,0,0,.14-.64Zm1.1-2.75-.18-.46a1.56,1.56,0,0,1-.14.41,1.56,1.56,0,0,0-.14.41v.28Zm0,11.55-.46.73v.09l.37-.36Zm1.56-15.5-.09-.27-.28.27.18.37Zm.37-1-.19-.18-.18.18.27.19Zm.45,1.29-.09-.55-.27.37.18.45Zm.65,9.17-.28.09-.18.46.09.09.27-.18Zm.64-13.85-.19-.27-.18.09.18.27Zm.46,11.37a1.49,1.49,0,0,0,.18-.64l.09-.18a.79.79,0,0,0-.37.64Zm1.37-3.76v-.36l-.18-.19ZM127.13,66q.27,0,.78-.87a3.37,3.37,0,0,0,.5-1.15Zm.73-5.23V61l.18-.55Zm.73-11.18-.18-.19-.18.19.18.27Zm.92-14,.09-.18-.09-.28-.18.28Zm.28,28.15.27-.37.28.09-.37.28Zm.82-1.2a8.32,8.32,0,0,1,.64-1.1Zm.64-1.1a.24.24,0,0,1,.1-.18ZM134.92,52c-.43.86-.84,1.73-1.24,2.61s-.78,1.79-1.14,2.71q2.93-4.31,5.68-8.57a38.92,38.92,0,0,1,6.69-7.84l.19-.92H145q-2.38,2.94-4.91,5.68a38,38,0,0,0-4.45,6Zm.18-3.39v.18a.42.42,0,0,0,.32-.32.81.81,0,0,1,.23-.41,11.63,11.63,0,0,1,1.52-2.2c.58-.67,1.16-1.33,1.74-2s1.16-1.3,1.74-2a9.3,9.3,0,0,0,1.42-2.2,7.92,7.92,0,0,0-.69.42,5.11,5.11,0,0,1-.68.41l-.87,1.24-1.47,2c-.52.7-1,1.32-1.42,1.87a4.62,4.62,0,0,1-.83.92Zm9.36-5.69h-.37l-.28.46.28-.09ZM145.65,40l.18.19.09-.19-.18-.27Zm1.65,5.78a.46.46,0,0,1,0-.19.41.41,0,0,0,0-.18l-.28-.18Zm2.47-.83.28.37.27-.37-.27-.27Zm1.38-1.65h.09l.55-.18.18-1.29-.55,1.2Zm1.1,4.22a4.2,4.2,0,0,1-.73.92l.18-.46Z"/><path class="cls-1" d="M150.73,62.42c0-.6,0-1.22,0-1.83a6.62,6.62,0,0,1,.32-1.74q1.47-4.59,2.84-8.8a27.59,27.59,0,0,1,4.4-8.16,33.73,33.73,0,0,1,3.54-3.9,28.59,28.59,0,0,1,4.21-3.34,23.14,23.14,0,0,1,4.77-2.39,15.08,15.08,0,0,1,5.18-.92A7.37,7.37,0,0,1,181.12,33a17.55,17.55,0,0,1,3.34,4.26,9.89,9.89,0,0,0,1.47-1.05c.55-.46,1.13-.9,1.75-1.33a14.59,14.59,0,0,1,1.78-1.1,3.45,3.45,0,0,1,1.61-.46q.36,0,.36.09a1,1,0,0,1-.18.55.94.94,0,0,0-.18.37c0,.06,0,.09,0,.09s0,0,0,.09a2.18,2.18,0,0,1,.82-.27,6.06,6.06,0,0,1,.92-.1,2,2,0,0,0-.23.33.83.83,0,0,0-.14.32q0,.18.09.18a.16.16,0,0,0,.14-.05.2.2,0,0,1,.14,0l.92.37L194,36c-.31.8-.64,1.56-1,2.29l-1.1,2.2.37-.36a50,50,0,0,1-2.48,6.64q-1.65,3.72-3.3,7.57c-1.1,2.56-2.06,5.06-2.89,7.47a20.17,20.17,0,0,0-1.23,6.37,3,3,0,0,0,.27,1.47,8,8,0,0,0,.55.78,5.7,5.7,0,0,0,.55.55,1,1,0,0,1,.28.78,5.3,5.3,0,0,1-2.84,1.56,16.48,16.48,0,0,1-3.31.36,4.76,4.76,0,0,1-2.93-.82,5.88,5.88,0,0,1-1.74-2.11,8.45,8.45,0,0,1-.83-2.84,26.44,26.44,0,0,1-.18-3V63.57a11.12,11.12,0,0,1,.09-1.33c-.73.74-1.57,1.62-2.52,2.66s-2,2.06-3,3.07a20.76,20.76,0,0,1-3.3,2.57,6.18,6.18,0,0,1-3.25,1,24.87,24.87,0,0,1-3.26-.18,6.11,6.11,0,0,1-2.33-.78A7.2,7.2,0,0,1,152.7,69a17.77,17.77,0,0,1-1.79-2.7c-.06-.68-.11-1.32-.14-1.93S150.73,63.1,150.73,62.42Zm9.35-18h-.46l-.09.09ZM159.62,59l.09.28.18-.28-.09-.18Zm.64,3.49a4.5,4.5,0,0,0,1.1-1.93c.24-.79.49-1.52.74-2.2l-1.75,2.75ZM179.7,41a7.28,7.28,0,0,0-4.77,2,32.53,32.53,0,0,0-4.4,4.68q-2.11,2.7-3.94,5.45a33.87,33.87,0,0,1-3.4,4.4c-.18.49-.42,1.06-.73,1.7s-.61,1.32-.91,2-.59,1.37-.83,2a4.65,4.65,0,0,0-.37,1.61v.09A6.62,6.62,0,0,0,163,63.34a46,46,0,0,0,4.08-3.76c1.5-1.52,3-3.21,4.63-5s3-3.62,4.36-5.36,2.39-3.3,3.25-4.68a6.9,6.9,0,0,0,1.29-3c0-.3-.11-.47-.33-.5A4.27,4.27,0,0,0,179.7,41Zm-19.16,2.48-.19.27.19.19.27-.19Zm12-8.8a5.85,5.85,0,0,0-2.65.77A23,23,0,0,0,167,37.3a25.78,25.78,0,0,0-2.7,2.34,17.19,17.19,0,0,0-1.88,2.16,3.81,3.81,0,0,0,.92-.64l1.37-1.2,1.47-1.28a9.27,9.27,0,0,1,1.19-.92l1.19-.59c.55-.28,1.1-.57,1.65-.88s1.06-.61,1.51-.91A3.45,3.45,0,0,0,172.54,34.65Zm-6.87,3a11.29,11.29,0,0,0-1,.87q-.78.69-.78.87Zm12.74,2.75a19.82,19.82,0,0,0-4.95,2.52,23,23,0,0,0-3.8,3.44,29.11,29.11,0,0,0-3.07,4.17q-1.38,2.25-2.75,4.72A16.51,16.51,0,0,0,165,53.39a17.41,17.41,0,0,1,1.15-1.87A37.91,37.91,0,0,1,169,47.76a20.62,20.62,0,0,1,2.66-2.57c.91-.73,1.91-1.45,3-2.16S177,41.46,178.41,40.42ZM164.2,64.17c.19,0,.58-.28,1.19-.83s1.32-1.24,2.11-2.06l2.57-2.66c.92-.95,1.74-1.86,2.47-2.75l1.89-2.29a5,5,0,0,0,.87-1.33l-.09-.09a31.19,31.19,0,0,0-2.57,2.43c-1,1-2,2.09-3,3.25s-2,2.31-3,3.44S164.87,63.37,164.2,64.17Zm1.74-20.82a3.75,3.75,0,0,0,1-.68l1.56-1.29c.55-.45,1.07-.9,1.56-1.33s.89-.76,1.19-1a11.68,11.68,0,0,0-2.84,1.88C167.56,41.69,166.74,42.5,165.94,43.35Zm.28,5a2.32,2.32,0,0,0,.46-.42c.12-.15.24-.32.37-.5a20.35,20.35,0,0,1,4.26-3.85,24.21,24.21,0,0,0,4.35-3.76,4.88,4.88,0,0,0-2.38,1.15,28.38,28.38,0,0,0-2.75,2.42c-.92.92-1.77,1.84-2.57,2.76A24.22,24.22,0,0,0,166.22,48.31Zm6.14,13.11a3.51,3.51,0,0,0-.73.68c-.43.46-.9,1-1.42,1.56s-1,1.18-1.56,1.79-.93,1.07-1.24,1.38c.86-.86,1.68-1.73,2.48-2.62S171.51,62.4,172.36,61.42Zm.28-1.56A9.12,9.12,0,0,0,171,61.6q-.74,1-1.47,1.83c.18-.18.44-.42.78-.73a13.74,13.74,0,0,0,1-1c.33-.36.62-.72.87-1A3.59,3.59,0,0,0,172.64,59.86ZM173.1,57l-.37.18-.09.18.27.09.37-.27Zm1.65,2.84a.75.75,0,0,0,.09.46Zm1.56-2.57a23.76,23.76,0,0,0-.78,2.34,17.37,17.37,0,0,0-.51,2.43,7,7,0,0,0,.87-2.34,22.67,22.67,0,0,1,.6-2.43Zm.55-1.47-.28.28-.09.27Zm7-8c-.55,1-1.16,2.31-1.83,3.8s-1.33,3.06-2,4.68a47,47,0,0,0-1.61,4.77,15.7,15.7,0,0,0-.64,4v.46a2.91,2.91,0,0,0,.32-1.14,6.4,6.4,0,0,1,.23-1.24,38.42,38.42,0,0,1,2.34-7.79Q182.27,51.52,183.82,47.85Zm-3.57,20.26a90.7,90.7,0,0,1,2.47-8.85q1.47-4.35,3-8.75-1.83,4.31-3.35,8.61A46.06,46.06,0,0,0,180.25,68.11Zm2.47-24.76c-.12,0-.29.17-.5.51s-.43.69-.64,1-.41.74-.6,1.1-.31.62-.36.74c.3-.37.71-.93,1.23-1.7A5,5,0,0,0,182.72,43.35Zm-1.28.83a4.19,4.19,0,0,0-.5.6,1.1,1.1,0,0,0-.23.68l.55-.64Zm.18,23.93a99,99,0,0,1,4.72-13.94q2.9-6.78,5.55-13.66-1,2.12-2.79,5.82T185.61,54q-1.7,4-2.93,7.7a19.74,19.74,0,0,0-1.24,5.91v.55ZM184.37,47a2.46,2.46,0,0,0,.32-.69,2.21,2.21,0,0,0,.14-.77l-.46.82Zm5.69-12.1a2.65,2.65,0,0,0-1.24.69A13.62,13.62,0,0,0,187.45,37c-.46.52-.89,1.06-1.29,1.61a10.82,10.82,0,0,1-1,1.19h.46c.73-.79,1.49-1.57,2.29-2.34A15,15,0,0,0,190.06,34.92Zm-4.4,9.35a2.48,2.48,0,0,0,.59-.92,11.72,11.72,0,0,0,.51-1.1v-.18c-.43,0-.71.29-.83.87S185.72,44,185.66,44.27Zm1.56,2.84-.37.74.27-.19Zm.36-.82-.27.36.09.19.18-.37Zm2.75-9.08c-.12,0-.3.17-.55.51s-.5.71-.78,1.14-.53.84-.77,1.24l-.55.87a8.14,8.14,0,0,0,.68-.82c.28-.37.55-.75.83-1.15s.52-.76.73-1.1S190.27,37.34,190.33,37.21Zm3.4-1.28c-.19.06-.53.44-1,1.14a14.45,14.45,0,0,0-.92,1.43A22.32,22.32,0,0,0,193.73,35.93Zm.09,1.28c-.13.25-.34.74-.64,1.47s-.59,1.1-.83,1.1Z"/><path class="cls-2" d="M51.09,10,44.61,38.52C66.47,27.52,51.09,10,51.09,10Z"/><path class="cls-3" d="M64.47,15.74,44.61,38.52C70.45,36.7,64.47,15.74,64.47,15.74Z"/></g></g></svg>